<svg width="24" height="24" viewBox="0 0 24 24" fill="none" xmlns="http://www.w3.org/2000/svg">
<path d="M11.9772 17.6984L6.67034 20.9029C6.5144 20.9799 6.36967 21.0111 6.23614 20.9965C6.10359 20.9809 5.97446 20.9351 5.84873 20.8591C5.72203 20.7811 5.62651 20.671 5.56219 20.5287C5.49786 20.3864 5.49201 20.2309 5.54464 20.0623L6.95688 14.0537L2.28597 10.0041C2.1544 9.89693 2.06765 9.76877 2.02574 9.61965C1.98384 9.47053 1.99309 9.32775 2.05352 9.1913C2.11395 9.05486 2.19436 8.94277 2.29474 8.85506C2.3961 8.77026 2.53255 8.71276 2.70409 8.68255L8.86764 8.14455L11.2711 2.45467C11.3374 2.29385 11.4329 2.17787 11.5576 2.10672C11.6824 2.03557 11.8222 2 11.9772 2C12.1322 2 12.2725 2.03557 12.3982 2.10672C12.524 2.17787 12.619 2.29385 12.6833 2.45467L15.0868 8.14455L21.2488 8.68255C21.4214 8.71179 21.5583 8.76978 21.6597 8.85652C21.761 8.94229 21.8419 9.05388 21.9023 9.1913C21.9618 9.32775 21.9706 9.47053 21.9286 9.61965C21.8867 9.76877 21.8 9.89693 21.6684 10.0041L16.9975 14.0537L18.4097 20.0623C18.4643 20.229 18.459 20.3839 18.3937 20.5272C18.3284 20.6705 18.2324 20.7806 18.1057 20.8576C17.9809 20.9356 17.8518 20.9819 17.7183 20.9965C17.5857 21.0111 17.4415 20.9799 17.2855 20.9029L11.9772 17.6984Z" fill="#FFE392"/>
</svg>
