<svg width="162" height="53" viewBox="0 0 162 53" fill="none" xmlns="http://www.w3.org/2000/svg">
<path d="M35.4913 0.360116H37.7713L41.4513 12.0401L39.6713 12.5601L36.6113 2.58012L33.5713 12.6601L31.7513 12.1201L35.4913 0.360116ZM35.6313 10.9801H37.6513V16.6001H41.6313V18.3601H31.6313V16.6001H35.6313V10.9801ZM52.2635 0.360116H54.7435V9.20012H52.8235V2.12012L44.3035 9.70012L43.1235 8.28012L52.2635 0.360116ZM58.2435 0.220116H60.1435V9.38012H58.2435V7.24012H55.5435V5.36012H58.2435V3.66012H55.5435V1.78012H58.2435V0.220116ZM50.4835 10.4601H60.1435V15.3801H52.6435V17.3001H60.5035V18.9201H50.7435V13.9201H58.2635V12.0601H50.4835V10.4601ZM73.8235 2.36012H68.4235V0.620117H75.7835V18.3401H73.8235V2.36012ZM78.9235 0.220116H80.8435V18.6401H78.9235V12.6801H75.2835V10.4201H78.9235V6.22012H75.2835V3.98012H78.9235V0.220116ZM83.0435 0.220116H84.9435V18.6401H83.0435V0.220116ZM88.2474 0.440117H99.5874V2.18012H96.9874V9.38012H95.1074V2.48012L88.5474 10.9201L87.1274 9.72012L93.0874 2.18012H88.2474V0.440117ZM102.007 0.220116H103.927V9.62012H102.007V5.76012H98.7874V3.72012H102.007V0.220116ZM99.3874 19.2001C98.6541 19.2001 97.9874 19.0735 97.3874 18.8201C96.7874 18.5801 96.2741 18.2468 95.8474 17.8201C95.4341 17.4068 95.1074 16.9201 94.8674 16.3601C94.6408 15.8001 94.5274 15.2001 94.5274 14.5601C94.5274 13.9201 94.6408 13.3201 94.8674 12.7601C95.1074 12.2001 95.4341 11.7068 95.8474 11.2801C96.2741 10.8535 96.7874 10.5201 97.3874 10.2801C97.9874 10.0268 98.6541 9.90012 99.3874 9.90012C100.121 9.90012 100.781 10.0268 101.367 10.2801C101.967 10.5201 102.474 10.8535 102.887 11.2801C103.314 11.7068 103.641 12.2001 103.867 12.7601C104.107 13.3201 104.227 13.9201 104.227 14.5601C104.227 15.2001 104.107 15.8001 103.867 16.3601C103.641 16.9201 103.314 17.4068 102.887 17.8201C102.474 18.2468 101.967 18.5801 101.367 18.8201C100.781 19.0735 100.121 19.2001 99.3874 19.2001ZM99.3874 17.4801C99.8541 17.4801 100.267 17.4068 100.627 17.2601C101.001 17.1001 101.307 16.8935 101.547 16.6401C101.801 16.3735 101.994 16.0668 102.127 15.7201C102.261 15.3601 102.327 14.9735 102.327 14.5601C102.327 14.1468 102.261 13.7668 102.127 13.4201C101.994 13.0601 101.801 12.7468 101.547 12.4801C101.307 12.2135 101.001 12.0068 100.627 11.8601C100.267 11.7001 99.8541 11.6201 99.3874 11.6201C98.9341 11.6201 98.5208 11.7001 98.1474 11.8601C97.7741 12.0068 97.4541 12.2135 97.1874 12.4801C96.9341 12.7468 96.7408 13.0601 96.6074 13.4201C96.4741 13.7668 96.4074 14.1468 96.4074 14.5601C96.4074 14.9735 96.4741 15.3601 96.6074 15.7201C96.7408 16.0668 96.9341 16.3735 97.1874 16.6401C97.4541 16.8935 97.7741 17.1001 98.1474 17.2601C98.5208 17.4068 98.9341 17.4801 99.3874 17.4801ZM113.731 0.000116348C114.825 0.000116348 115.818 0.19345 116.711 0.580116C117.618 0.953449 118.385 1.46012 119.011 2.10012C119.638 2.74012 120.125 3.48678 120.471 4.34012C120.831 5.19345 121.011 6.08678 121.011 7.02012C121.011 7.96678 120.831 8.86678 120.471 9.72012C120.125 10.5735 119.638 11.3268 119.011 11.9801C118.385 12.6201 117.618 13.1268 116.711 13.5001C115.818 13.8735 114.825 14.0601 113.731 14.0601C112.638 14.0601 111.638 13.8735 110.731 13.5001C109.838 13.1268 109.071 12.6201 108.431 11.9801C107.805 11.3268 107.318 10.5735 106.971 9.72012C106.625 8.86678 106.451 7.96678 106.451 7.02012C106.451 6.08678 106.625 5.19345 106.971 4.34012C107.318 3.48678 107.805 2.74012 108.431 2.10012C109.071 1.46012 109.838 0.953449 110.731 0.580116C111.638 0.19345 112.638 0.000116348 113.731 0.000116348ZM113.731 1.84012C112.931 1.84012 112.205 1.97345 111.551 2.24012C110.898 2.50678 110.338 2.88012 109.871 3.36012C109.418 3.82678 109.071 4.37345 108.831 5.00012C108.591 5.62678 108.471 6.30012 108.471 7.02012C108.471 7.74012 108.591 8.42012 108.831 9.06012C109.071 9.68678 109.418 10.2401 109.871 10.7201C110.338 11.1868 110.898 11.5535 111.551 11.8201C112.205 12.0868 112.931 12.2201 113.731 12.2201C114.531 12.2201 115.251 12.0868 115.891 11.8201C116.545 11.5535 117.098 11.1868 117.551 10.7201C118.018 10.2401 118.371 9.68678 118.611 9.06012C118.865 8.42012 118.991 7.74012 118.991 7.02012C118.991 6.30012 118.865 5.62678 118.611 5.00012C118.371 4.37345 118.018 3.82678 117.551 3.36012C117.098 2.88012 116.545 2.50678 115.891 2.24012C115.251 1.97345 114.531 1.84012 113.731 1.84012ZM106.631 16.4401H120.831V18.2001H106.631V16.4401ZM123.143 0.480116H130.943V6.86012H125.283V10.2401H131.283V11.9601H123.363V5.22012H129.023V2.20012H123.143V0.480116ZM126.223 11.0601H128.243V16.6001H131.623V18.3601H122.823V16.6001H126.223V11.0601ZM6.96002 36.2401H1.95801e-05V34.5001H8.90002V44.8201H6.96002V36.2401ZM11.74 34.2201H13.66V39.0401H16.78V41.0001H13.66V47.3001H11.74V34.2201ZM4.12002 45.8601H6.20002V50.9601H14.22V52.6801H4.12002V45.8601ZM17.573 34.5801H29.153V36.3001H26.973V43.0601H29.193V44.7801H17.573V43.0601H19.693V36.3001H17.573V34.5801ZM21.693 36.3001V43.0601H24.973V36.3001H21.693ZM31.793 34.2201H33.713V47.4001H31.793V42.4401H29.273V40.5401H31.793V38.4401H29.273V36.5401H31.793V34.2201ZM23.753 46.4601H25.833V50.9601H33.993V52.6801H23.753V46.4601ZM51.9216 38.7601H36.2016V37.0201H42.9616V33.9001H45.1416V37.0201H51.9216V38.7601ZM36.4816 44.3801C36.4816 43.3935 36.6616 42.4735 37.0216 41.6201C37.3949 40.7668 37.9149 40.0268 38.5816 39.4001C39.2482 38.7601 40.0416 38.2601 40.9616 37.9001C41.8816 37.5401 42.9016 37.3601 44.0216 37.3601C45.1416 37.3601 46.1616 37.5401 47.0816 37.9001C48.0016 38.2601 48.7949 38.7601 49.4616 39.4001C50.1282 40.0268 50.6482 40.7668 51.0216 41.6201C51.3949 42.4735 51.5816 43.3935 51.5816 44.3801C51.5816 45.4068 51.4016 46.3668 51.0416 47.2601C50.6816 48.1535 50.1682 48.9335 49.5016 49.6001C48.8482 50.2668 48.0549 50.7935 47.1216 51.1801C46.2016 51.5535 45.1682 51.7401 44.0216 51.7401C42.8749 51.7401 41.8349 51.5535 40.9016 51.1801C39.9816 50.7935 39.1882 50.2668 38.5216 49.6001C37.8682 48.9335 37.3616 48.1535 37.0016 47.2601C36.6549 46.3668 36.4816 45.4068 36.4816 44.3801ZM49.6016 44.3801C49.6016 43.6201 49.4682 42.9068 49.2016 42.2401C48.9349 41.5734 48.5549 40.9934 48.0616 40.5001C47.5682 40.0068 46.9816 39.6201 46.3016 39.3401C45.6216 39.0468 44.8616 38.9001 44.0216 38.9001C43.1816 38.9001 42.4216 39.0468 41.7416 39.3401C41.0616 39.6201 40.4749 40.0068 39.9816 40.5001C39.5016 40.9934 39.1282 41.5734 38.8616 42.2401C38.5949 42.9068 38.4616 43.6201 38.4616 44.3801C38.4616 45.1668 38.5949 45.8935 38.8616 46.5601C39.1416 47.2268 39.5282 47.8068 40.0216 48.3001C40.5149 48.7935 41.1016 49.1801 41.7816 49.4601C42.4616 49.7268 43.2082 49.8601 44.0216 49.8601C44.8349 49.8601 45.5816 49.7268 46.2616 49.4601C46.9549 49.1801 47.5482 48.7935 48.0416 48.3001C48.5349 47.8068 48.9149 47.2268 49.1816 46.5601C49.4616 45.8935 49.6016 45.1668 49.6016 44.3801ZM53.1216 34.2201H55.0416V41.4401H58.2216V43.6801H55.0416V52.6401H53.1216V34.2201ZM64.4192 36.3401H58.9792V34.6001H66.3592V52.3401H64.4192V36.3401ZM69.4392 34.2201H71.3592V52.6401H69.4392V43.6001H65.8192V41.3201H69.4392V34.2201ZM73.6192 34.2201H75.5392V52.6401H73.6192V34.2201ZM84.1486 34.4801H91.9486V40.8601H86.2886V44.2401H92.2886V45.9601H84.3686V39.2201H90.0286V36.2001H84.1486V34.4801ZM87.2286 45.0601H89.2486V50.6001H92.6286V52.3601H83.8286V50.6001H87.2286V45.0601ZM94.9494 34.4401H102.629V46.6401H100.649V36.1801H94.9494V34.4401ZM94.6294 52.2201V50.4401H103.429V52.2201H94.6294ZM111.43 33.9401C112.337 33.9401 113.177 34.0934 113.95 34.4001C114.724 34.7068 115.39 35.1334 115.95 35.6801C116.524 36.2268 116.97 36.8801 117.29 37.6401C117.61 38.3868 117.77 39.2001 117.77 40.0801C117.77 40.9601 117.61 41.7801 117.29 42.5401C116.97 43.2868 116.524 43.9334 115.95 44.4801C115.39 45.0268 114.724 45.4535 113.95 45.7601C113.177 46.0668 112.337 46.2201 111.43 46.2201C110.51 46.2201 109.664 46.0668 108.89 45.7601C108.117 45.4535 107.444 45.0268 106.87 44.4801C106.31 43.9334 105.87 43.2868 105.55 42.5401C105.23 41.7801 105.07 40.9601 105.07 40.0801C105.07 39.2001 105.23 38.3868 105.55 37.6401C105.87 36.8801 106.31 36.2268 106.87 35.6801C107.444 35.1334 108.117 34.7068 108.89 34.4001C109.664 34.0934 110.51 33.9401 111.43 33.9401ZM111.43 35.7601C110.777 35.7601 110.184 35.8734 109.65 36.1001C109.13 36.3134 108.677 36.6134 108.29 37.0001C107.904 37.3735 107.604 37.8268 107.39 38.3601C107.19 38.8801 107.09 39.4535 107.09 40.0801C107.09 40.7068 107.19 41.2868 107.39 41.8201C107.604 42.3401 107.904 42.7934 108.29 43.1801C108.677 43.5668 109.13 43.8668 109.65 44.0801C110.184 44.2935 110.777 44.4001 111.43 44.4001C112.07 44.4001 112.657 44.2935 113.19 44.0801C113.724 43.8668 114.177 43.5668 114.55 43.1801C114.937 42.7934 115.237 42.3401 115.45 41.8201C115.664 41.2868 115.77 40.7068 115.77 40.0801C115.77 39.4535 115.664 38.8801 115.45 38.3601C115.237 37.8268 114.937 37.3735 114.55 37.0001C114.177 36.6134 113.724 36.3134 113.19 36.1001C112.657 35.8734 112.07 35.7601 111.43 35.7601ZM119.83 34.2201H121.73V47.3601H119.83V34.2201ZM111.69 47.3401H113.77V50.9601H122.05V52.6801H111.69V47.3401ZM139.929 38.7601H124.209V37.0201H130.969V33.9001H133.149V37.0201H139.929V38.7601ZM124.489 44.3801C124.489 43.3935 124.669 42.4735 125.029 41.6201C125.403 40.7668 125.923 40.0268 126.589 39.4001C127.256 38.7601 128.049 38.2601 128.969 37.9001C129.889 37.5401 130.909 37.3601 132.029 37.3601C133.149 37.3601 134.169 37.5401 135.089 37.9001C136.009 38.2601 136.803 38.7601 137.469 39.4001C138.136 40.0268 138.656 40.7668 139.029 41.6201C139.403 42.4735 139.589 43.3935 139.589 44.3801C139.589 45.4068 139.409 46.3668 139.049 47.2601C138.689 48.1535 138.176 48.9335 137.509 49.6001C136.856 50.2668 136.063 50.7935 135.129 51.1801C134.209 51.5535 133.176 51.7401 132.029 51.7401C130.883 51.7401 129.843 51.5535 128.909 51.1801C127.989 50.7935 127.196 50.2668 126.529 49.6001C125.876 48.9335 125.369 48.1535 125.009 47.2601C124.663 46.3668 124.489 45.4068 124.489 44.3801ZM137.609 44.3801C137.609 43.6201 137.476 42.9068 137.209 42.2401C136.943 41.5734 136.563 40.9934 136.069 40.5001C135.576 40.0068 134.989 39.6201 134.309 39.3401C133.629 39.0468 132.869 38.9001 132.029 38.9001C131.189 38.9001 130.429 39.0468 129.749 39.3401C129.069 39.6201 128.483 40.0068 127.989 40.5001C127.509 40.9934 127.136 41.5734 126.869 42.2401C126.603 42.9068 126.469 43.6201 126.469 44.3801C126.469 45.1668 126.603 45.8935 126.869 46.5601C127.149 47.2268 127.536 47.8068 128.029 48.3001C128.523 48.7935 129.109 49.1801 129.789 49.4601C130.469 49.7268 131.216 49.8601 132.029 49.8601C132.843 49.8601 133.589 49.7268 134.269 49.4601C134.963 49.1801 135.556 48.7935 136.049 48.3001C136.543 47.8068 136.923 47.2268 137.189 46.5601C137.469 45.8935 137.609 45.1668 137.609 44.3801ZM141.129 34.2201H143.049V41.4401H146.229V43.6801H143.049V52.6401H141.129V34.2201ZM154.787 36.3401H147.087V34.6001H156.747V52.3001H154.787V36.3401ZM160.067 34.2201H161.987V52.6401H160.067V34.2201Z" fill="#121212"/>
</svg>
