<svg width="358" height="41" viewBox="0 0 358 41" fill="none" xmlns="http://www.w3.org/2000/svg">
<path d="M74.6654 7.408H79.3454V28.672H76.2734V10.864L67.6574 28.72L64.7054 27.304L74.6654 7.408ZM81.9374 7.12H84.9854V15.136H88.2734V19.048H84.9854V29.224H81.9374V7.12ZM90.1694 7.312H104.113V10.144H101.425V20.368H98.3534V10.672L91.0574 21.064L88.7054 19.264L95.2334 10.144H90.1694V7.312ZM105.937 7.12H109.009V22.888H105.937V7.12ZM96.5534 21.736H99.8894V26.584H109.369V29.392H96.5534V21.736ZM112.974 7.312H126.918V10.144H124.23V18.664H121.158V10.456L113.67 19.792L111.486 17.824L117.75 10.144H112.974V7.312ZM128.742 7.12H131.814V18.736H128.742V7.12ZM118.638 19.744H121.638V21.64H128.79V19.744H131.79V29.464H118.638V19.744ZM121.638 24.304V26.776H128.79V24.304H121.638ZM145.475 7.096C147.027 7.096 148.467 7.36 149.795 7.888C151.139 8.416 152.299 9.152 153.275 10.096C154.267 11.04 155.043 12.176 155.603 13.504C156.163 14.832 156.443 16.296 156.443 17.896C156.443 19.496 156.163 20.96 155.603 22.288C155.043 23.616 154.267 24.752 153.275 25.696C152.299 26.64 151.139 27.376 149.795 27.904C148.467 28.432 147.027 28.696 145.475 28.696C143.923 28.696 142.475 28.432 141.131 27.904C139.803 27.376 138.643 26.64 137.651 25.696C136.675 24.752 135.907 23.616 135.347 22.288C134.787 20.96 134.507 19.496 134.507 17.896C134.507 16.296 134.787 14.832 135.347 13.504C135.907 12.176 136.675 11.04 137.651 10.096C138.643 9.152 139.803 8.416 141.131 7.888C142.475 7.36 143.923 7.096 145.475 7.096ZM145.475 10.12C144.355 10.12 143.323 10.32 142.379 10.72C141.451 11.104 140.643 11.64 139.955 12.328C139.267 13.016 138.731 13.832 138.347 14.776C137.979 15.72 137.795 16.76 137.795 17.896C137.795 19.016 137.979 20.056 138.347 21.016C138.731 21.96 139.267 22.776 139.955 23.464C140.643 24.152 141.451 24.696 142.379 25.096C143.323 25.48 144.355 25.672 145.475 25.672C146.595 25.672 147.619 25.48 148.547 25.096C149.491 24.696 150.307 24.152 150.995 23.464C151.683 22.776 152.219 21.96 152.603 21.016C152.987 20.056 153.179 19.016 153.179 17.896C153.179 16.76 152.987 15.72 152.603 14.776C152.219 13.832 151.683 13.016 150.995 12.328C150.307 11.64 149.491 11.104 148.547 10.72C147.619 10.32 146.595 10.12 145.475 10.12ZM158.027 7.12H161.075V29.224H158.027V7.12ZM176.56 6.568C177.472 6.568 178.32 6.72 179.104 7.024C179.888 7.312 180.568 7.72 181.144 8.248C181.72 8.776 182.168 9.416 182.488 10.168C182.824 10.904 182.992 11.712 182.992 12.592C182.992 13.488 182.824 14.304 182.488 15.04C182.168 15.776 181.72 16.416 181.144 16.96C180.568 17.488 179.888 17.896 179.104 18.184C178.32 18.472 177.472 18.616 176.56 18.616C175.648 18.616 174.8 18.472 174.016 18.184C173.232 17.896 172.552 17.488 171.976 16.96C171.416 16.416 170.968 15.776 170.632 15.04C170.296 14.304 170.128 13.488 170.128 12.592C170.128 11.712 170.296 10.904 170.632 10.168C170.968 9.416 171.416 8.776 171.976 8.248C172.552 7.72 173.232 7.312 174.016 7.024C174.8 6.72 175.648 6.568 176.56 6.568ZM176.536 9.28C176.024 9.28 175.552 9.368 175.12 9.544C174.704 9.704 174.352 9.936 174.064 10.24C173.776 10.528 173.552 10.872 173.392 11.272C173.232 11.672 173.152 12.112 173.152 12.592C173.152 13.072 173.232 13.52 173.392 13.936C173.552 14.336 173.776 14.688 174.064 14.992C174.352 15.28 174.704 15.512 175.12 15.688C175.552 15.848 176.024 15.928 176.536 15.928C177.048 15.928 177.512 15.848 177.928 15.688C178.36 15.512 178.72 15.28 179.008 14.992C179.312 14.688 179.536 14.336 179.68 13.936C179.84 13.52 179.92 13.072 179.92 12.592C179.92 12.112 179.84 11.672 179.68 11.272C179.536 10.872 179.312 10.528 179.008 10.24C178.72 9.936 178.36 9.704 177.928 9.544C177.512 9.368 177.048 9.28 176.536 9.28ZM184.024 7.12H187.072V13.144H190.144V16.408H187.072V24.184H184.024V22.744H170.44V19.912H174.928V17.44H178.216V19.912H184.024V7.12ZM175.72 23.848H179.056V26.584H187.504V29.392H175.72V23.848ZM201.529 7.192H205.273V17.824H202.225V10.288L192.625 18.616L190.753 16.36L201.529 7.192ZM208.345 7.12H211.393V17.968H208.345V14.056H203.881V10.648H208.345V7.12ZM199.585 24.28C199.585 23.48 199.729 22.736 200.017 22.048C200.305 21.36 200.713 20.752 201.241 20.224C201.769 19.696 202.409 19.28 203.161 18.976C203.913 18.672 204.745 18.52 205.657 18.52C206.553 18.52 207.369 18.672 208.105 18.976C208.857 19.28 209.497 19.696 210.025 20.224C210.553 20.752 210.961 21.36 211.249 22.048C211.553 22.736 211.705 23.48 211.705 24.28C211.705 25.064 211.553 25.808 211.249 26.512C210.961 27.2 210.553 27.8 210.025 28.312C209.497 28.84 208.857 29.256 208.105 29.56C207.369 29.864 206.553 30.016 205.657 30.016C204.745 30.016 203.913 29.864 203.161 29.56C202.409 29.256 201.769 28.84 201.241 28.312C200.713 27.8 200.305 27.2 200.017 26.512C199.729 25.808 199.585 25.064 199.585 24.28ZM208.705 24.28C208.705 23.832 208.633 23.424 208.489 23.056C208.345 22.688 208.137 22.368 207.865 22.096C207.609 21.824 207.289 21.616 206.905 21.472C206.537 21.312 206.121 21.232 205.657 21.232C205.193 21.232 204.769 21.312 204.385 21.472C204.001 21.616 203.673 21.824 203.401 22.096C203.129 22.368 202.921 22.688 202.777 23.056C202.633 23.424 202.561 23.832 202.561 24.28C202.561 24.712 202.633 25.112 202.777 25.48C202.921 25.848 203.129 26.168 203.401 26.44C203.673 26.712 204.001 26.928 204.385 27.088C204.769 27.232 205.193 27.304 205.657 27.304C206.121 27.304 206.537 27.232 206.905 27.088C207.289 26.928 207.609 26.712 207.865 26.44C208.137 26.168 208.345 25.848 208.489 25.48C208.633 25.112 208.705 24.712 208.705 24.28ZM214.374 7.24H224.094V9.952H217.614V12.688H224.094V15.4H214.374V7.24ZM225.918 7.12H228.99V11.752H231.582V7.12H234.63V20.272H231.582V14.992H228.99V20.272H213.87V17.44H217.734V14.08H220.95V17.44H225.918V7.12ZM230.334 21.376L235.422 27.784L233.358 29.728L230.214 25.696L227.238 29.464L224.286 25.648L221.166 29.728L219.078 27.784L224.238 21.376L227.238 25.24L230.334 21.376ZM248.105 7.096C249.657 7.096 251.097 7.368 252.425 7.912C253.769 8.44 254.929 9.184 255.905 10.144C256.897 11.088 257.673 12.224 258.233 13.552C258.793 14.88 259.073 16.328 259.073 17.896C259.073 19.464 258.793 20.912 258.233 22.24C257.673 23.568 256.897 24.712 255.905 25.672C254.929 26.616 253.769 27.36 252.425 27.904C251.097 28.432 249.657 28.696 248.105 28.696C246.553 28.696 245.105 28.432 243.761 27.904C242.433 27.36 241.273 26.616 240.281 25.672C239.305 24.712 238.537 23.568 237.977 22.24C237.417 20.912 237.137 19.464 237.137 17.896C237.137 16.328 237.417 14.88 237.977 13.552C238.537 12.224 239.305 11.088 240.281 10.144C241.273 9.184 242.433 8.44 243.761 7.912C245.105 7.368 246.553 7.096 248.105 7.096ZM248.105 10.12C246.985 10.12 245.953 10.32 245.009 10.72C244.081 11.104 243.273 11.64 242.585 12.328C241.897 13.016 241.361 13.832 240.977 14.776C240.609 15.72 240.425 16.76 240.425 17.896C240.425 19.016 240.609 20.056 240.977 21.016C241.361 21.96 241.897 22.776 242.585 23.464C243.273 24.152 244.081 24.696 245.009 25.096C245.953 25.48 246.985 25.672 248.105 25.672C249.225 25.672 250.249 25.48 251.177 25.096C252.121 24.696 252.937 24.152 253.625 23.464C254.313 22.776 254.849 21.96 255.233 21.016C255.617 20.056 255.809 19.016 255.809 17.896C255.809 16.76 255.617 15.72 255.233 14.776C254.849 13.832 254.313 13.016 253.625 12.328C252.937 11.64 252.121 11.104 251.177 10.72C250.249 10.32 249.225 10.12 248.105 10.12ZM261.113 7.12H264.161V29.224H261.113V19.384H256.865V15.592H261.113V7.12ZM278.794 20.992L281.842 19.696V26.152H284.17V28.984H267.13V26.152H269.434V19.696L272.482 20.992V26.152H278.794V20.992ZM270.202 15.016C270.202 15.768 270.33 16.472 270.586 17.128C270.842 17.768 271.202 18.328 271.666 18.808C272.146 19.288 272.722 19.664 273.394 19.936C274.066 20.208 274.81 20.344 275.626 20.344C276.442 20.344 277.178 20.208 277.834 19.936C278.506 19.664 279.074 19.288 279.538 18.808C280.018 18.328 280.386 17.768 280.642 17.128C280.914 16.472 281.05 15.768 281.05 15.016C281.05 14.248 280.914 13.544 280.642 12.904C280.386 12.248 280.018 11.688 279.538 11.224C279.074 10.744 278.506 10.368 277.834 10.096C277.178 9.824 276.442 9.688 275.626 9.688C274.81 9.688 274.066 9.824 273.394 10.096C272.722 10.368 272.146 10.744 271.666 11.224C271.202 11.688 270.842 12.248 270.586 12.904C270.33 13.544 270.202 14.248 270.202 15.016ZM284.266 15.016C284.266 16.136 284.058 17.2 283.642 18.208C283.226 19.216 282.634 20.096 281.866 20.848C281.114 21.584 280.21 22.176 279.154 22.624C278.098 23.056 276.922 23.272 275.626 23.272C274.346 23.272 273.17 23.056 272.098 22.624C271.026 22.176 270.114 21.584 269.362 20.848C268.61 20.096 268.018 19.216 267.586 18.208C267.17 17.2 266.962 16.136 266.962 15.016C266.962 13.88 267.17 12.808 267.586 11.8C268.018 10.792 268.61 9.92 269.362 9.184C270.114 8.432 271.026 7.84 272.098 7.408C273.17 6.96 274.346 6.736 275.626 6.736C276.922 6.736 278.098 6.96 279.154 7.408C280.21 7.84 281.114 8.432 281.866 9.184C282.634 9.92 283.226 10.792 283.642 11.8C284.058 12.808 284.266 13.88 284.266 15.016ZM287.352 27.76C287.352 27.456 287.408 27.176 287.52 26.92C287.632 26.648 287.792 26.416 288 26.224C288.208 26.032 288.44 25.88 288.696 25.768C288.968 25.64 289.256 25.576 289.56 25.576C289.864 25.576 290.144 25.632 290.4 25.744C290.672 25.856 290.904 26.016 291.096 26.224C291.304 26.416 291.464 26.648 291.576 26.92C291.688 27.176 291.744 27.456 291.744 27.76C291.744 28.064 291.68 28.352 291.552 28.624C291.44 28.896 291.28 29.128 291.072 29.32C290.88 29.528 290.656 29.688 290.4 29.8C290.144 29.912 289.864 29.968 289.56 29.968C289.256 29.968 288.968 29.912 288.696 29.8C288.44 29.688 288.208 29.528 288 29.32C287.792 29.128 287.632 28.896 287.52 28.624C287.408 28.352 287.352 28.064 287.352 27.76ZM291.24 6.856L291.12 22.672H287.928L287.832 6.856H291.24Z" fill="#363636"/>
</svg>
