<svg width="24" height="24" viewBox="0 0 24 24" fill="none" xmlns="http://www.w3.org/2000/svg">
<path fill-rule="evenodd" clip-rule="evenodd" d="M16 2C16.5523 2 17 2.44772 17 3V4H20.7998C21.4625 4 22 4.53745 22 5.2002V19.7998C22 20.4625 21.4625 21 20.7998 21H3.2002C2.53745 21 2 20.4625 2 19.7998V5.2002C2 4.53745 2.53745 4 3.2002 4H7V3C7 2.44772 7.44772 2 8 2C8.55228 2 9 2.44772 9 3V4H15V3C15 2.44772 15.4477 2 16 2ZM6 15.3C6 15.4105 6.08954 15.5 6.2 15.5H7.8C7.91046 15.5 8 15.4105 8 15.3V13.7C8 13.5895 7.91046 13.5 7.8 13.5H6.2C6.08954 13.5 6 13.5895 6 13.7V15.3ZM11 15.3C11 15.4105 11.0895 15.5 11.2 15.5H12.8C12.9105 15.5 13 15.4105 13 15.3V13.7C13 13.5895 12.9105 13.5 12.8 13.5H11.2C11.0895 13.5 11 13.5895 11 13.7V15.3ZM16 15.3C16 15.4105 16.0895 15.5 16.2 15.5H17.8C17.9105 15.5 18 15.4105 18 15.3V13.7C18 13.5895 17.9105 13.5 17.8 13.5H16.2C16.0895 13.5 16 13.5895 16 13.7V15.3ZM6 11.3C6 11.4105 6.08954 11.5 6.2 11.5H7.8C7.91046 11.5 8 11.4105 8 11.3V9.7C8 9.58954 7.91046 9.5 7.8 9.5H6.2C6.08954 9.5 6 9.58954 6 9.7V11.3ZM11 11.3C11 11.4105 11.0895 11.5 11.2 11.5H12.8C12.9105 11.5 13 11.4105 13 11.3V9.7C13 9.58954 12.9105 9.5 12.8 9.5H11.2C11.0895 9.5 11 9.58954 11 9.7V11.3ZM16 11.3C16 11.4105 16.0895 11.5 16.2 11.5H17.8C17.9105 11.5 18 11.4105 18 11.3V9.7C18 9.58954 17.9105 9.5 17.8 9.5H16.2C16.0895 9.5 16 9.58954 16 9.7V11.3Z" fill="white"/>
</svg>
