<svg width="28" height="28" viewBox="0 0 28 28" fill="none" xmlns="http://www.w3.org/2000/svg">
<g clip-path="url(#clip0_335_4343)">
<path d="M3.5 10.5V22.6333C3.5 23.2867 3.5 23.6133 3.62717 23.863C3.73902 24.0825 3.91749 24.261 4.137 24.3728C4.38667 24.5 4.71333 24.5 5.36433 24.5H17.5M19.8333 9.33333L15.1667 14L12.8333 11.6667M8.16667 16.1V7.23333C8.16667 5.92667 8.16667 5.27333 8.421 4.774C8.645 4.33417 9.00083 3.97833 9.44067 3.75433C9.94 3.5 10.5933 3.5 11.9 3.5H20.7667C22.0733 3.5 22.7267 3.5 23.226 3.75433C23.665 3.97803 24.022 4.33497 24.2457 4.774C24.5 5.27333 24.5 5.92667 24.5 7.23333V16.1C24.5 17.4067 24.5 18.06 24.2457 18.5593C24.022 18.9984 23.665 19.3553 23.226 19.579C22.7267 19.8333 22.0757 19.8333 20.7713 19.8333H11.8965C10.5922 19.8333 9.93883 19.8333 9.44067 19.579C9.00164 19.3553 8.6447 18.9984 8.421 18.5593C8.16667 18.06 8.16667 17.4067 8.16667 16.1Z" stroke="#121212" stroke-width="1.4875" stroke-linecap="round" stroke-linejoin="round"/>
</g>
<defs>
<clipPath id="clip0_335_4343">
<rect width="28" height="28" fill="white"/>
</clipPath>
</defs>
</svg>
