<svg width="24" height="24" viewBox="0 0 24 24" fill="none" xmlns="http://www.w3.org/2000/svg">
<path d="M11.25 11.7648C11.25 11.8753 11.1605 11.9648 11.05 11.9648H4.2C4.08954 11.9648 4 11.8753 4 11.7648V10.9648C4 6.87444 7.0699 3.50148 11.0314 3.02335C11.1483 3.00924 11.25 3.10169 11.25 3.21946V11.7648ZM12.6519 3.21946C12.6519 3.10169 12.7536 3.00924 12.8706 3.02335C16.832 3.50148 19.9019 6.87444 19.9019 10.9648V11.7648C19.9019 11.8753 19.8124 11.9648 19.7019 11.9648H12.8519C12.7415 11.9648 12.6519 11.8753 12.6519 11.7648V3.21946Z" fill="white"/>
<path d="M5.20019 20.8785H11.05C11.1605 20.8785 11.25 20.789 11.25 20.6785V13.5648C11.25 13.4544 11.1605 13.3648 11.05 13.3648H4.2C4.08954 13.3648 4 13.4544 4 13.5648V19.6783C4 20.3411 4.53745 20.8785 5.20019 20.8785Z" fill="white"/>
<path d="M18.7017 20.8785C19.3645 20.8785 19.9019 20.3411 19.9019 19.6783V13.5648C19.9019 13.4544 19.8124 13.3648 19.7019 13.3648H12.8519C12.7415 13.3648 12.6519 13.4544 12.6519 13.5648V20.6785C12.6519 20.789 12.7415 20.8785 12.8519 20.8785H18.7017Z" fill="white"/>
</svg>
